<svg xmlns="http://www.w3.org/2000/svg" viewBox="0 0 128 128">
  <path fill="#7952B3" d="M75.701 65.603c-2.334-.768-5.694-.603-10.08-.603h-17.621v23h18.844c2.944 0 5.012-.315 6.203-.535 2.099-.376 3.854-1.104 5.264-1.982 1.409-.879 2.58-2.199 3.472-3.903.893-1.703 1.341-3.592 1.341-5.747 0-2.456-.645-4.464-1.937-6.097-1.291-1.633-3.094-2.921-5.486-3.133zm-2.419-24.689c1.612-1.468 2.418-3.432 2.418-5.93 0-1.802-.356-3.311-1.068-4.509-.713-1.198-1.666-2.046-2.859-2.573-1.193-.527-2.534-.79-4.024-.79H49.93v17.401h15.741c3.543 0 5.865-.632 7.611-2.599zM126 18.625c0-9.728-7.896-17.625-17.625-17.625h-88.75C9.896 1 2 8.897 2 18.625v90.75C2 119.103 9.896 127 19.625 127h88.75c9.729 0 17.625-7.897 17.625-17.625v-90.75zm-23.566 53.24c-1.346 2.556-3.098 4.667-5.163 6.275-2.066 1.608-4.578 2.785-7.474 3.456l-1.262.262c-1.724.278-4.138.383-7.363.383H57.559v25.76h-16.37V21h29.661c4.398 0 7.765.165 10.099.494 2.335.328 4.518 1.019 6.544 2.073 2.026 1.054 3.725 2.583 5.084 4.597 1.36 2.013 2.04 4.382 2.04 7.088 0 3.088-.753 5.815-2.265 8.162-1.511 2.348-3.716 4.118-6.614 5.308v.295c4.03.957 7.116 2.931 9.194 5.896 2.078 2.965 3.102 6.482 3.102 10.555 0 2.749-.532 5.327-1.578 7.775z"/>
</svg>
