<svg xmlns="http://www.w3.org/2000/svg" viewBox="0 0 128 128">
  <path d="M126.67 98.44c-4.56 1.16-7.38.05-9.91-3.75-5.68-8.51-11.95-16.63-18-24.9-.78-1.07-1.59-2.12-2.6-3.45C89 76 81.85 85.2 75.14 94.77c-2.4 3.42-4.92 4.91-9.22 3.71l26.5-33.63-25.05-32.05c4.07-.77 7.14-.42 9.68 3.38 5.57 8.32 11.6 16.33 17.75 24.85 6.23-8.57 12.17-16.67 17.81-24.97 2.53-3.72 5.21-4.35 9.42-3.27L96.3 65.08l27.37 33.36M1.33 61.74c.72-3.61 1.2-7.29 2.2-10.83 6-21.43 30.6-30.34 47.5-17.06C60.93 41.64 63.39 52.62 62.9 65H7.1c-.84 22.21 15.15 35.62 35.53 28.78 7.15-2.4 11.36-8 13.47-15 1.07-3.51 2.84-4.06 6.14-3.06-1.69 8.76-5.52 16.08-13.52 20.66-12 6.86-29.13 5.24-37.85-3.63-8.36-8.5-11.06-18.99-9.54-31.01zM7.2 60.25h50.3c-.34-15.61-10.21-26.4-23.78-26.71C19.93 33.18 8.22 44.39 7.2 60.25z" fill="currentColor"/>
</svg>
