<svg xmlns="http://www.w3.org/2000/svg" viewBox="0 0 128 128">
  <path fill="#F05032" d="M124.742 58.378L69.622 3.258c-3.01-3.01-7.89-3.01-10.9 0l-11.45 11.45 14.53 14.53c3.38-1.14 7.25-.38 9.94 2.31 2.7 2.7 3.46 6.58 2.29 9.97l14.01 14.01c3.38-1.17 7.27-.41 9.97 2.29 3.77 3.77 3.77 9.88 0 13.65-3.77 3.77-9.88 3.77-13.65 0-2.84-2.84-3.54-7.01-2.12-10.5L69.2 47.92v37.84c.92.45 1.79 1.06 2.56 1.83 3.77 3.77 3.77 9.88 0 13.65-3.77 3.77-9.88 3.77-13.65 0-3.77-3.77-3.77-9.88 0-13.65.96-.96 2.07-1.67 3.25-2.13V47.24c-1.18-.46-2.29-1.17-3.25-2.13-2.87-2.87-3.55-7.1-2.07-10.63L42.6 21.02 3.258 60.378c-3.01 3.01-3.01 7.89 0 10.9l55.12 55.12c3.01 3.01 7.89 3.01 10.9 0l55.12-55.12c3.02-3.01 3.02-7.89.344-10.9z"/>
</svg>
