<svg xmlns="http://www.w3.org/2000/svg" viewBox="0 0 128 128">
  <path fill="#6181B6" d="M64 33.039C30.26 33.039 2.906 46.901 2.906 64S30.26 94.961 64 94.961 125.094 81.099 125.094 64 97.74 33.039 64 33.039zM48.103 70.032c-1.458 1.364-3.077 1.927-4.86 2.507-1.783.581-4.052.461-6.811.461h-6.253l-1.733 10h-7.301l6.515-34H41.7c4.224 0 7.305 1.215 9.242 3.432 1.937 2.217 2.519 5.364 1.747 9.337-.319 1.637-.856 3.159-1.614 4.515a15.118 15.118 0 01-2.972 3.748zM69.414 73l2.881-14.42c.328-1.688.132-2.913-.588-3.676-.72-.764-2.016-1.145-3.888-1.145h-6.39l-3.828 19.241h-7.233l6.515-34h7.232l-1.427 7.06h6.955c4.016 0 6.827.840 8.430 2.519 1.604 1.680 2.012 4.24 1.226 7.68L76.65 73h-7.236zM107.05 59.927c-.319 1.637-.856 3.133-1.614 4.489a15.12 15.12 0 01-2.972 3.748c-1.458 1.364-3.077 1.927-4.86 2.507-1.783.581-4.052.461-6.812.461h-6.253L82.806 81.13h-7.3l6.514-34h14.041c4.224 0 7.305 1.215 9.242 3.432 1.935 2.218 2.519 5.364 1.747 9.365zM42.502 60.601c.761-3.861-.32-5.835-3.247-5.835h-5.282l-2.882 14.418h5.282c2.927.001 5.367-4.721 6.129-8.583zM99.139 60.601c.761-3.861-.319-5.835-3.247-5.835h-5.282l-2.882 14.418h5.283c2.926.001 5.366-4.721 6.128-8.583z"/>
</svg>
