<svg xmlns="http://www.w3.org/2000/svg" viewBox="0 0 128 128">
  <path fill="#2D3748" d="M101.1 72.5c-3.9-1.1-8.3-1.8-13.1-2.1 4-3.5 6.7-7.6 7.7-11.8.2-.9-.5-1.8-1.4-1.8h-9.5c-.6 0-1.1.3-1.3.8-1.4 3.1-3.8 6-7.2 8.6v-28c0-.8-.6-1.4-1.4-1.4H65c-.8 0-1.4.6-1.4 1.4v18.3c-3.7-2.3-6.4-5.1-8-8.3-.2-.5-.7-.8-1.3-.8h-9.5c-.9 0-1.6.9-1.4 1.8.9 3.8 3.3 7.5 6.7 10.7-5.2.4-9.9 1.3-14 2.5-1.8.5-2.7 2.5-1.9 4.2l3.2 6.7c.5 1.1 1.8 1.7 3 1.3 3.3-1.2 7.3-2 11.7-2.4v9.1l-8.7 8.7c-.5.5-.5 1.4 0 2l7.1 7.1c.5.5 1.4.5 2 0l5.8-5.8v12.3c0 .8.6 1.4 1.4 1.4h9.8c.8 0 1.4-.6 1.4-1.4V93.2l5.8 5.8c.5.5 1.4.5 2 0l7.1-7.1c.5-.5.5-1.4 0-2L76.8 81v-9c4.1.4 7.8 1.2 10.9 2.4 1.1.4 2.4-.1 3-1.3l3.2-6.7c.8-1.5-.1-3.5-1.9-4.1z"/>
  <path fill="#5A67D8" d="M64 8C29.1 8 1 30.5 1 58.3s28.1 50.3 63 50.3 63-22.5 63-50.3S98.9 8 64 8zm37.1 68.4l-3.2 6.7c-.5 1.1-1.8 1.7-3 1.3-3.1-1.2-6.8-2-10.9-2.4v9l7.8 7.8c.5.5.5 1.4 0 2l-7.1 7.1c-.5.5-1.4.5-2 0l-5.8-5.8v12.3c0 .8-.6 1.4-1.4 1.4H65c-.8 0-1.4-.6-1.4-1.4V102l-5.8 5.8c-.5.5-1.4.5-2 0l-7.1-7.1c-.5-.5-.5-1.4 0-2l8.7-8.7v-9.1c-4.4.4-8.4 1.2-11.7 2.4-1.1.4-2.4-.1-3-1.3l-3.2-6.7c-.8-1.7.1-3.7 1.9-4.2 4.1-1.2 8.8-2.1 14-2.5-3.4-3.2-5.8-6.9-6.7-10.7-.2-.9.5-1.8 1.4-1.8h9.5c.6 0 1.1.3 1.3.8 1.6 3.2 4.3 6 8 8.3V39.8c0-.8.6-1.4 1.4-1.4h9.8c.8 0 1.4.6 1.4 1.4v28c3.4-2.6 5.8-5.5 7.2-8.6.2-.5.7-.8 1.3-.8h9.5c.9 0 1.6.9 1.4 1.8-1 4.2-3.7 8.3-7.7 11.8 4.8.3 9.2 1 13.1 2.1 1.8.6 2.7 2.6 1.9 4.2z"/>
</svg>
