<svg xmlns="http://www.w3.org/2000/svg" viewBox="0 0 512 512">
  <circle cx="256" cy="256" r="256" fill="#000"/>
  <path d="M406.5 145.9c-17.4-33.2-53.8-39.4-82.8-23.8-22 11.8-35.4 30.8-47.2 52.6-4.6 8.4-8.8 17-13.6 26.6-14.4-16.4-30.2-27-52.6-28.8-30.4-2.4-54.6 11.6-62.4 37.4-5.2 17.2-1.8 33.8 8 49 3.4 5.2 3.2 5.6-1.4 9.8-12 11-22.8 23-28.6 38.4-9.4 25.2-3 50.8 17.4 64.4 13.4 8.8 28.2 10.2 43.6 6.6 20.2-4.8 34.8-17.4 47-33 8.2-10.6 15-22.2 22.6-33.8 2 2.2 3.6 3.8 5 5.6 15.8 19.6 34.6 34.8 61.2 35.8 18.4.6 34.6-5 47.8-17.6 2.6-2.4 2.6-3.8.2-6.4l-12.4-12.6c-2-2-3.2-2.2-5.6-.2-9.8 8.4-20.8 12.2-33.8 9.2-16.4-3.8-26.6-15.2-34.2-29.4-3.6-6.6-6.6-13.6-10.2-21.2 6.8-4.4 13.6-8.4 20-13 18.2-12.8 34.6-27.6 42.4-49 5.8-15.8 3.2-30.8-7.8-43.8l-1-1.2c5.2-9.8 10.2-19.4 15.8-28.6 8-13.2 17.2-25.4 32.6-30.6 12.4-4.2 23.6-1.4 30.8 10.2 5.2 8.4 5.8 17.8 4.4 27.4-1.2 7.4-4.4 14-9 20-1.8 2.2-1.6 3.4.8 5l12. 8.2c3.4 2.2 4.4 1.8 6.6-1.6 14.2-21.8 18.2-45.6 8-70.4zm-175 132.2c-8.8 14.4-18.4 28-32.6 37.2-8.4 5.6-17.6 8.8-27.8 5.4-10.6-3.4-14.2-13-13.2-22.6 1.6-14.2 10.4-24.4 20.8-33.2 7.4-6.2 15.4-11.6 24-18 3.6 5.2 6 9.6 8.4 14 7.6 13.4 14.2 27.2 20.4 17.2zm69-53c-4 12.4-13.4 20.8-24 28.2-6.4 4.4-13.2 8.2-20.4 12.6-10.8-21.6-21.2-42.2-18.2-67.8 1.4-11.4 5.6-21.6 16-27.8 14.4-8.6 29.4-1 33.8 16 2.4 9.8 1.2 19.8-2.2 29.4l15-9.4z" fill="#fff"/>
</svg>
