<svg xmlns="http://www.w3.org/2000/svg" viewBox="0 0 128 128">
  <path fill="#3C873A" d="M112.678 30.334L68.535 4.729a12.38 12.38 0 00-5.659-2.21c-.281-.049-.559-.089-.837-.117H59.96c-.278.028-.556.068-.837.117a12.38 12.38 0 00-5.659 2.21L9.322 30.334A12.632 12.632 0 003 41.259v50.874a12.644 12.644 0 006.322 10.932l44.143 25.6a12.38 12.38 0 005.659 2.21c.281.049.559.089.837.117h2.042c.278-.028.556-.068.837-.117a12.38 12.38 0 005.659-2.21l44.143-25.6A12.644 12.644 0 00119 92.133V41.259a12.632 12.632 0 00-6.322-10.925zM63.332 108.669V64.394L19.19 38.729l44.142 25.6v44.34zm1.336-50.94L20.527 32.124 64.668 6.461l44.142 25.663-44.142 25.605z"/>
  <path fill="#333" d="M63.332 108.669V64.394L19.19 38.729l44.142 25.6v44.34z" opacity=".15"/>
</svg>
